<?xml version="1.0" encoding="UTF-8" standalone="no"?>
<!DOCTYPE svg PUBLIC "-//W3C//DTD SVG 1.1//EN"
 "http://www.w3.org/Graphics/SVG/1.1/DTD/svg11.dtd">
<!-- Generated by graphviz version 2.30.1 (20130214.1330)
 -->
<!-- Title: %3 Pages: 1 -->
<svg width="333pt" height="436pt"
 viewBox="0.00 0.00 333.00 436.00" xmlns="http://www.w3.org/2000/svg" xmlns:xlink="http://www.w3.org/1999/xlink">
<g id="graph0" class="graph" transform="scale(1 1) rotate(0) translate(4 432)">
<title>%3</title>
<polygon fill="white" stroke="white" points="-4,5 -4,-432 330,-432 330,5 -4,5"/>
<!-- A -->
<g id="node1" class="node"><title>A</title>
<polygon fill="none" stroke="black" points="175.5,-113.5 62.5,-113.5 62.5,-0.5 175.5,-0.5 175.5,-113.5"/>
<text text-anchor="middle" x="119" y="-53.3" font-family="Helvetica,sans-Serif" font-size="14.00">Settler Mortality</text>
</g>
<!-- B -->
<g id="node2" class="node"><title>B</title>
<polygon fill="none" stroke="black" points="124,-288 0,-288 0,-164 124,-164 124,-288"/>
<text text-anchor="middle" x="62" y="-222.3" font-family="Helvetica,sans-Serif" font-size="14.00">Good Institutions</text>
</g>
<!-- A&#45;&gt;B -->
<g id="edge1" class="edge"><title>A&#45;&gt;B</title>
<path fill="none" stroke="black" stroke-dasharray="5,2" d="M77.0799,-113.784C73.9219,-119.725 71.1389,-125.849 69,-132 66.6234,-138.834 64.8632,-146.116 63.5767,-153.481"/>
<polygon fill="black" stroke="black" points="62.1025,-163.542 59.0999,-152.996 62.8274,-158.595 63.5524,-153.648 63.5524,-153.648 63.5524,-153.648 62.8274,-158.595 68.0048,-154.301 62.1025,-163.542 62.1025,-163.542"/>
<text text-anchor="middle" x="110.5" y="-135.9" font-family="Courier,monospace" font-size="12.00">First Stage</text>
</g>
<!-- C -->
<g id="node3" class="node"><title>C</title>
<polygon fill="none" stroke="black" points="157.5,-427.5 68.5,-427.5 68.5,-338.5 157.5,-338.5 157.5,-427.5"/>
<text text-anchor="middle" x="113" y="-379.3" font-family="Helvetica,sans-Serif" font-size="14.00">GDP/capita</text>
</g>
<!-- A&#45;&gt;C -->
<g id="edge2" class="edge"><title>A&#45;&gt;C</title>
<path fill="none" stroke="black" stroke-dasharray="5,2" d="M146.759,-113.739C148.891,-119.787 150.711,-125.946 152,-132 169.397,-213.724 175.151,-239.716 152,-320 151.102,-323.116 149.995,-326.226 148.731,-329.301"/>
<polygon fill="black" stroke="black" points="144.516,-338.389 144.641,-327.424 146.62,-333.853 148.723,-329.317 148.723,-329.317 148.723,-329.317 146.62,-333.853 152.806,-331.21 144.516,-338.389 144.516,-338.389"/>
<text text-anchor="middle" x="246" y="-222.9" font-family="Courier,monospace" font-size="12.00">Exclusion Restriction</text>
</g>
<!-- B&#45;&gt;C -->
<g id="edge3" class="edge"><title>B&#45;&gt;C</title>
<path fill="none" stroke="black" stroke-dasharray="5,2" d="M55.1438,-288.094C55.6578,-298.953 57.3563,-309.985 61,-320 62.1888,-323.267 63.6338,-326.483 65.2744,-329.625"/>
<polygon fill="black" stroke="black" points="70.365,-338.272 61.4137,-331.937 67.8283,-333.963 65.2915,-329.654 65.2915,-329.654 65.2915,-329.654 67.8283,-333.963 69.1694,-327.371 70.365,-338.272 70.365,-338.272"/>
<text text-anchor="middle" x="106.5" y="-309.9" font-family="Courier,monospace" font-size="12.00">Second Stage</text>
</g>
</g>
</svg>
